<svg width="16" height="16" viewBox="0 0 16 16" fill="none" xmlns="http://www.w3.org/2000/svg">
<rect width="16" height="16" rx="2" fill="#354a5f"/>
<g clip-path="url(#clip0_202:364)">
<path d="M11.74 5.26001C11.5734 5.09573 11.3489 5.00354 11.115 5.00354C10.8811 5.00354 10.6565 5.09573 10.49 5.26001L6.8999 9.15991L5.51001 7.77002C5.4282 7.68748 5.33091 7.62186 5.22363 7.57715C5.11636 7.53244 5.00123 7.5094 4.88501 7.5094C4.76879 7.5094 4.65366 7.53244 4.54639 7.57715C4.43911 7.62186 4.34182 7.68748 4.26001 7.77002C4.17747 7.85183 4.11185 7.94912 4.06714 8.0564C4.02243 8.16367 3.99951 8.2788 3.99951 8.39502C3.99951 8.51124 4.02243 8.62625 4.06714 8.73352C4.11185 8.84079 4.17747 8.93821 4.26001 9.02002L6.47998 11.24C6.59044 11.3493 6.73961 11.4106 6.89502 11.4106C7.05043 11.4106 7.1996 11.3493 7.31006 11.24L8.13989 10.3999L11.73 6.5C11.895 6.33648 11.9886 6.11437 11.9905 5.88208C11.9924 5.64979 11.9023 5.42617 11.74 5.26001Z" fill="white"/>
</g>
<defs>
<clipPath id="clip0_202:364">
<rect width="8" height="6.41" fill="white" transform="translate(4 5)"/>
</clipPath>
</defs>
</svg>
