<svg width="14" height="14" viewBox="0 0 14 14" fill="none" xmlns="http://www.w3.org/2000/svg">
<g clip-path="url(#clip0)">
<path d="M11.8801 14H2.12012C1.83248 13.991 1.54942 13.9253 1.28717 13.8068C1.02492 13.6883 0.788623 13.5193 0.591735 13.3094C0.394846 13.0996 0.241219 12.8529 0.139708 12.5836C0.0381976 12.3143 -0.00921969 12.0276 0.000121091 11.74V9.73999C-0.0119976 9.63627 -0.00204764 9.53123 0.0293569 9.43164C0.0607615 9.33205 0.112888 9.24024 0.182311 9.16223C0.251734 9.08422 0.336915 9.02175 0.432189 8.979C0.527463 8.93625 0.630681 8.91418 0.735106 8.91418C0.839532 8.91418 0.942811 8.93625 1.03808 8.979C1.13336 9.02175 1.21848 9.08422 1.2879 9.16223C1.35733 9.24024 1.40945 9.33205 1.44086 9.43164C1.47226 9.53123 1.48221 9.63627 1.47009 9.73999V11.74C1.46743 11.828 1.48214 11.9156 1.51337 11.9979C1.5446 12.0802 1.59173 12.1556 1.6521 12.2197C1.71246 12.2838 1.78487 12.3354 1.86517 12.3715C1.94547 12.4075 2.03212 12.4275 2.12012 12.4301H11.8801C11.9681 12.4275 12.0547 12.4075 12.135 12.3715C12.2153 12.3354 12.2877 12.2838 12.3481 12.2197C12.4084 12.1556 12.4556 12.0802 12.4869 11.9979C12.5181 11.9156 12.5328 11.828 12.5301 11.74V9.73999C12.518 9.63627 12.528 9.53123 12.5594 9.43164C12.5908 9.33205 12.6429 9.24024 12.7123 9.16223C12.7818 9.08422 12.8669 9.02175 12.9622 8.979C13.0574 8.93625 13.1607 8.91418 13.2651 8.91418C13.3696 8.91418 13.4728 8.93625 13.5681 8.979C13.6633 9.02175 13.7485 9.08422 13.8179 9.16223C13.8874 9.24024 13.9395 9.33205 13.9709 9.43164C14.0023 9.53123 14.0122 9.63627 14.0001 9.73999V11.74C14.0095 12.0276 13.962 12.3143 13.8605 12.5836C13.759 12.8529 13.6054 13.0996 13.4085 13.3094C13.2116 13.5193 12.9753 13.6883 12.7131 13.8068C12.4508 13.9253 12.1678 13.991 11.8801 14ZM11.0901 6.16003L9.91009 7.5L7.5401 10.22C7.40712 10.3519 7.2274 10.4259 7.0401 10.4259C6.8528 10.4259 6.67308 10.3519 6.5401 10.22L2.9801 6.16003C2.84511 6.00667 2.77063 5.8093 2.77063 5.60498C2.77063 5.40066 2.84511 5.20342 2.9801 5.05005C3.11308 4.91815 3.2928 4.84412 3.4801 4.84412C3.6674 4.84412 3.84712 4.91815 3.9801 5.05005L6.26013 7.66003V0.73999C6.25747 0.640177 6.27449 0.54086 6.31024 0.447632C6.34599 0.354404 6.39978 0.269092 6.4685 0.196655C6.53723 0.124219 6.61953 0.0659989 6.71075 0.0253906C6.80197 -0.0152176 6.90031 -0.0374469 7.00012 -0.0400391C7.09949 -0.0374691 7.19735 -0.0150965 7.28802 0.0256348C7.3787 0.0663661 7.46039 0.124687 7.52832 0.197266C7.59625 0.269844 7.64907 0.35519 7.68371 0.448364C7.71836 0.541538 7.73411 0.640665 7.7301 0.73999V7.66003L10.0201 5.05005C10.1531 4.91815 10.3328 4.84412 10.5201 4.84412C10.7074 4.84412 10.8872 4.91815 11.0201 5.05005C11.1671 5.1936 11.2556 5.38652 11.2686 5.59155C11.2815 5.79659 11.2179 5.99916 11.0901 6.16003Z" fill="white"/>
</g>
<defs>
<clipPath id="clip0">
<rect width="14" height="14" fill="white"/>
</clipPath>
</defs>
</svg>
