<svg width="20" height="20" viewBox="0 0 20 20" fill="none" xmlns="http://www.w3.org/2000/svg">
<rect x="0.5" y="0.5" width="19" height="19" rx="3.5" fill="white" stroke="#89919a"/>
<g clip-path="url(#clip0)">
<path d="M13.55 6.44989C12.6085 5.50837 11.3315 4.97943 10 4.97943C8.66849 4.97943 7.39153 5.50837 6.45001 6.44989C5.50849 7.39141 4.97955 8.66843 4.97955 9.99994C4.97955 11.3314 5.50849 12.6085 6.45001 13.55C6.58351 13.6874 6.72725 13.8144 6.88 13.93V12.69C6.88 11.8943 7.19605 11.1313 7.75866 10.5687C8.32127 10.0061 9.08435 9.69 9.88 9.69H10.2C10.9957 9.69 11.7587 10.0061 12.3213 10.5687C12.8839 11.1313 13.2 11.8943 13.2 12.69V13.93C13.3528 13.8144 13.4965 13.6874 13.63 13.55C14.0986 13.0852 14.4706 12.5321 14.7244 11.9228C14.9783 11.3135 15.109 10.66 15.109 9.99994C15.109 9.33988 14.9783 8.68638 14.7244 8.07708C14.4706 7.46779 14.0986 6.9147 13.63 6.44989H13.55ZM10 15.9999C8.81331 15.9999 7.65326 15.648 6.66656 14.9887C5.67987 14.3294 4.91085 13.3924 4.45672 12.2961C4.0026 11.1997 3.88378 9.99329 4.11529 8.8294C4.3468 7.66552 4.91821 6.59637 5.75732 5.75726C6.59644 4.91814 7.66558 4.3468 8.82946 4.11529C9.99335 3.88378 11.1997 4.0026 12.2961 4.45672C13.3924 4.91085 14.3295 5.67987 14.9888 6.66656C15.6481 7.65326 16 8.81325 16 9.99994C16 11.5912 15.3678 13.1174 14.2426 14.2426C13.1174 15.3678 11.5913 15.9999 10 15.9999ZM10 9.3399C9.66575 9.3399 9.33901 9.24081 9.06109 9.05511C8.78317 8.86941 8.56657 8.6055 8.43866 8.29669C8.31074 7.98788 8.27726 7.64808 8.34246 7.32025C8.40767 6.99242 8.56864 6.69124 8.80499 6.45489C9.04134 6.21854 9.34246 6.05758 9.67028 5.99237C9.99811 5.92716 10.3379 5.96065 10.6467 6.08856C10.9555 6.21647 11.2194 6.43308 11.4051 6.711C11.5908 6.98891 11.69 7.31571 11.69 7.64996C11.69 8.09818 11.5119 8.52797 11.195 8.84491C10.8781 9.16184 10.4482 9.3399 10 9.3399ZM16.8 17.52C16.6665 17.6516 16.4874 17.7267 16.3 17.7299C16.1121 17.7288 15.9323 17.6534 15.8 17.52L11.57 13.29L12.57 12.29L16.81 16.53C16.9419 16.6629 17.0159 16.8427 17.0159 17.03C17.0159 17.2173 16.9419 17.397 16.81 17.53L16.8 17.52Z" fill="#89919a"/>
</g>
<defs>
<clipPath id="clip0">
<rect width="13" height="13.73" fill="white" transform="translate(4 4)"/>
</clipPath>
</defs>
</svg>
