<svg width="16" height="14" viewBox="0 0 16 14" fill="none" xmlns="http://www.w3.org/2000/svg">
<g clip-path="url(#clip0)">
<path d="M8.24109 10.8761V12.1805H6.91938V10.8761H8.24109ZM2.35827 10.8761V12.1805H1.02803V10.8761H2.35827ZM8.24109 3.24837H6.91938V1.94396H8.24109V3.24837ZM14.1324 10.8761V12.1805H12.8108V10.8761H14.1324ZM14.6508 9.86538H13.9857V7.27385C13.9845 7.11844 13.9528 6.96479 13.8922 6.82163C13.8317 6.67848 13.7436 6.54863 13.6329 6.43954C13.5222 6.33045 13.3911 6.24425 13.2471 6.18583C13.1031 6.1274 12.949 6.0979 12.7936 6.09904H8.0942V4.25041H8.75937C8.89454 4.25041 9.02422 4.19672 9.1198 4.10114C9.21538 4.00556 9.26901 3.87589 9.26901 3.74072V1.43427C9.27018 1.36702 9.25783 1.30024 9.23263 1.23787C9.20743 1.17551 9.17 1.11883 9.12243 1.07126C9.07487 1.0237 9.01819 0.986216 8.95582 0.961017C8.89346 0.935818 8.82662 0.923467 8.75937 0.924637H6.4011C6.33345 0.92349 6.26622 0.935812 6.20338 0.960911C6.14055 0.98601 6.08333 1.02335 6.03508 1.07079C5.98684 1.11823 5.94851 1.17484 5.92236 1.23724C5.89621 1.29965 5.88281 1.36661 5.88281 1.43427V3.74072C5.88508 3.87668 5.94066 4.00633 6.03761 4.10167C6.13457 4.19701 6.26512 4.25043 6.4011 4.25041H7.06627V6.09904H2.36692C2.2115 6.0979 2.0574 6.1274 1.91338 6.18583C1.76936 6.24425 1.63824 6.33045 1.52754 6.43954C1.41684 6.54863 1.32876 6.67848 1.26824 6.82163C1.20772 6.96479 1.17594 7.11844 1.17481 7.27385V9.86538H0.518284C0.382305 9.86536 0.251862 9.91878 0.154905 10.0141C0.0579487 10.1095 0.00226633 10.2391 5.24212e-09 10.3751V12.6815C-9.71445e-06 12.7492 0.0134974 12.8161 0.039649 12.8785C0.0658007 12.941 0.104129 12.9976 0.152374 13.045C0.20062 13.0924 0.257836 13.1298 0.320672 13.1549C0.383508 13.18 0.45063 13.1923 0.518284 13.1912H2.86801C2.93567 13.1923 3.0029 13.18 3.06573 13.1549C3.12857 13.1298 3.18568 13.0924 3.23392 13.045C3.28217 12.9976 3.3205 12.941 3.34665 12.8785C3.3728 12.8161 3.38631 12.7492 3.3863 12.6815V10.3751C3.38403 10.2391 3.32846 10.1095 3.2315 10.0141C3.13454 9.91878 3.00399 9.86536 2.86801 9.86538H2.21149V7.27385C2.21031 7.25272 2.21348 7.23157 2.22077 7.21169C2.22805 7.19182 2.23932 7.17365 2.25388 7.15828C2.26843 7.14292 2.28589 7.13067 2.30534 7.12232C2.32479 7.11398 2.34575 7.10969 2.36692 7.10972H7.06627V9.85673H6.4011C6.26593 9.85673 6.13625 9.91042 6.04067 10.006C5.94509 10.1016 5.89146 10.2313 5.89146 10.3664V12.6729C5.89029 12.7401 5.90264 12.8069 5.92784 12.8693C5.95304 12.9316 5.99058 12.9883 6.03814 13.0359C6.0857 13.0834 6.14228 13.1209 6.20465 13.1461C6.26701 13.1713 6.33385 13.1837 6.4011 13.1826H8.75937C8.82703 13.1837 8.89425 13.1713 8.95709 13.1462C9.01993 13.1211 9.07714 13.0838 9.12539 13.0364C9.17363 12.9889 9.21196 12.9323 9.23811 12.8699C9.26426 12.8075 9.27767 12.7405 9.27766 12.6729V10.3664C9.27539 10.2305 9.21981 10.1008 9.12286 10.0055C9.0259 9.91013 8.89535 9.85672 8.75937 9.85673H8.0942V7.10972H12.7936C12.8151 7.10972 12.8364 7.11397 12.8563 7.12222C12.8762 7.13047 12.8943 7.14257 12.9095 7.15781C12.9248 7.17305 12.9369 7.19115 12.9452 7.21106C12.9534 7.23097 12.9576 7.2523 12.9576 7.27385V9.86538H12.2925C12.1565 9.86536 12.026 9.91878 11.9291 10.0141C11.8321 10.1095 11.7764 10.2391 11.7742 10.3751V12.6815C11.7742 12.7492 11.7877 12.8161 11.8138 12.8785C11.84 12.941 11.8783 12.9976 11.9265 13.045C11.9748 13.0924 12.032 13.1298 12.0948 13.1549C12.1577 13.18 12.2248 13.1923 12.2925 13.1912H14.6508C14.7181 13.1923 14.7848 13.18 14.8472 13.1548C14.9095 13.1296 14.9662 13.0921 15.0138 13.0445C15.0614 12.997 15.0989 12.9403 15.1241 12.8779C15.1493 12.8156 15.1616 12.7488 15.1605 12.6815V10.3751C15.1605 10.2399 15.1067 10.1102 15.0112 10.0146C14.9156 9.91906 14.786 9.86538 14.6508 9.86538Z" fill="#AAAAAA"/>
</g>
<defs>
<clipPath id="clip0">
<rect width="15.1604" height="12.2579" fill="white" transform="translate(0 0.933594)"/>
</clipPath>
</defs>
</svg>
