<svg width="17" height="14" viewBox="0 0 17 14" fill="none" xmlns="http://www.w3.org/2000/svg">
<g clip-path="url(#clip0)">
<path d="M15.869 12.3962C15.7232 12.6731 15.4959 12.8986 15.2179 13.0423C14.9398 13.186 14.6243 13.2409 14.3141 13.1995H10.8587V12.8453V12.7935C11.0124 12.6379 11.1278 12.4486 11.1956 12.2407L11.2388 12.1284H13.5798H13.9512C14.3313 12.1284 14.8151 12.1284 14.8929 11.9642C14.9521 11.7953 14.9756 11.6158 14.962 11.4373C14.9766 11.0546 14.9149 10.6729 14.7806 10.3143C14.5241 9.81846 14.1236 9.41192 13.6316 9.14811C13.4329 9.01853 13.217 8.90625 13.0097 8.78531C12.6276 8.58366 12.2583 8.35861 11.9039 8.11149C11.7936 8.03012 11.7186 7.90952 11.6945 7.77452C11.6704 7.63952 11.699 7.50043 11.7744 7.38589C12.3101 6.59304 12.6096 5.66437 12.6382 4.70795C12.6507 4.2659 12.5596 3.82708 12.3721 3.42658C12.1846 3.02608 11.9059 2.67502 11.5584 2.4015C11.1345 2.12679 10.6312 2.00066 10.1278 2.04287C9.62437 2.08509 9.14916 2.29327 8.77684 2.63476L8.55223 2.85072L8.44858 2.652C8.33323 2.44787 8.2003 2.25423 8.05124 2.07324L7.94759 1.94364L8.05989 1.83134C8.61265 1.33207 9.31559 1.03064 10.0583 0.974352C10.801 0.918061 11.5415 1.11011 12.1631 1.52037C12.6524 1.89356 13.0472 2.37642 13.3158 2.93007C13.5843 3.48372 13.7192 4.09268 13.7094 4.70795C13.6912 5.69437 13.4237 6.66017 12.9319 7.51543C13.1133 7.62773 13.3034 7.73139 13.4934 7.83505C13.6835 7.93871 13.9599 8.09422 14.1845 8.23244C14.8635 8.60781 15.4097 9.18414 15.7481 9.88235C15.942 10.3741 16.0331 10.9004 16.0158 11.4287C16.0364 11.7579 15.9863 12.0878 15.869 12.3962ZM10.1849 11.1349C10.1917 10.8058 10.1163 10.4801 9.96547 10.1875C9.81462 9.89483 9.59314 9.64447 9.32107 9.45908C8.45722 8.90622 7.73161 8.46564 7.17011 8.14602C7.10315 8.10693 7.04485 8.05461 6.99881 7.99222C6.95276 7.92984 6.91994 7.85873 6.90232 7.78322C6.88912 7.70659 6.89147 7.62809 6.90928 7.55239C6.92709 7.4767 6.95999 7.40536 7.00598 7.34266C7.56285 6.593 7.86552 5.68498 7.86982 4.75113C7.86982 3.1703 6.89368 2.02141 5.55473 2.02141C4.21577 2.02141 3.23099 3.1703 3.23099 4.75113C3.23013 5.71138 3.54928 6.64454 4.13801 7.40313C4.18572 7.46337 4.22038 7.53291 4.23972 7.60728C4.25906 7.68165 4.26264 7.75921 4.25032 7.83505C4.23745 7.91234 4.20752 7.98581 4.16269 8.05006C4.11786 8.11432 4.05927 8.16774 3.99118 8.2065C3.51606 8.48293 2.83364 8.90623 1.95252 9.46773C1.67579 9.66073 1.45173 9.91992 1.30084 10.2217C1.14996 10.5235 1.07704 10.8582 1.08868 11.1954V11.8519C1.08412 11.8928 1.08873 11.9341 1.10218 11.973C1.11563 12.0118 1.13755 12.0472 1.1664 12.0765C1.19094 12.1049 1.22153 12.1273 1.25592 12.1423C1.29031 12.1572 1.32764 12.1643 1.36511 12.1629H9.87394C9.95491 12.1607 10.0318 12.1269 10.0883 12.0688C10.1447 12.0108 10.1763 11.9329 10.1763 11.8519L10.1849 11.1349ZM9.88258 13.1736H1.34782C1.16745 13.175 0.988689 13.1398 0.822366 13.07C0.656044 13.0002 0.505641 12.8973 0.380322 12.7676C0.254844 12.6355 0.157267 12.4794 0.0934467 12.3087C0.0296263 12.138 0.00087773 11.9562 0.00887628 11.7742V11.1349C0.00449749 10.6238 0.126849 10.1196 0.365032 9.66734C0.603215 9.2151 0.949763 8.82894 1.37371 8.54341L2.95455 7.54997C2.44346 6.69612 2.17193 5.72036 2.16848 4.72524C2.16848 2.52245 3.58517 0.924316 5.55473 0.924316C7.52429 0.924316 8.94097 2.52245 8.94097 4.72524C8.93211 5.69594 8.67328 6.64798 8.18944 7.48955C8.68182 7.78325 9.2606 8.13741 9.91712 8.55205C10.3401 8.83732 10.685 9.22388 10.9204 9.67652C11.1557 10.1292 11.2741 10.6335 11.2647 11.1436V11.8001C11.2602 12.166 11.1116 12.5153 10.8513 12.7724C10.591 13.0295 10.2398 13.1736 9.87394 13.1736H9.88258Z" fill="#AAAAAA"/>
</g>
<defs>
<clipPath id="clip0">
<rect width="16.0243" height="12.2666" fill="white" transform="translate(0 0.93335)"/>
</clipPath>
</defs>
</svg>
