<svg width="18" height="14" viewBox="0 0 18 14" fill="none" xmlns="http://www.w3.org/2000/svg">
<g clip-path="url(#clip0)">
<path d="M15.334 7.41233V6.54849L13.6075 8.54396L11.9394 7.02359L10.6383 8.50937L10.5132 8.40572C10.4557 8.35204 10.3943 8.30297 10.3297 8.25888L9.87927 7.95655L11.8643 5.676L13.5324 7.19637L14.7418 5.79695H13.8577V4.8208L16.1931 4.87263L16.2348 7.3691L15.334 7.41233ZM16.9354 11.792H11.7142V11.1095C11.7142 11.1095 11.7142 11.0577 11.7142 11.0318V10.8159H16.9521C16.9772 10.8137 17.0005 10.8018 17.0175 10.7826C17.0345 10.7634 17.0439 10.7383 17.0438 10.7122V3.35226C17.045 3.33908 17.0435 3.32579 17.0394 3.31324C17.0353 3.3007 17.0287 3.28916 17.0201 3.2794C17.0115 3.26964 17.0009 3.26187 16.9892 3.25657C16.9775 3.25126 16.9649 3.24855 16.9521 3.2486H9.33716V3.15359C9.26421 2.92125 9.17211 2.6958 9.06191 2.47977L8.95348 2.27246H16.9687C17.2394 2.27926 17.4964 2.39656 17.6839 2.59882C17.8714 2.80109 17.9741 3.07192 17.9696 3.35226V10.7122C17.9718 10.8539 17.9467 10.9946 17.8956 11.1261C17.8445 11.2576 17.7686 11.3772 17.6722 11.4778C17.5758 11.5784 17.461 11.6581 17.3344 11.712C17.2079 11.766 17.0722 11.7932 16.9354 11.792ZM10.4798 11.1095C10.4881 10.7728 10.4163 10.4392 10.2709 10.1379C10.1255 9.83668 9.91078 9.57705 9.64576 9.38186C8.8117 8.829 8.14446 8.37983 7.61066 8.06021C7.55111 8.02415 7.49955 7.97547 7.45932 7.91743C7.41908 7.85939 7.39105 7.79327 7.3771 7.7233C7.36442 7.65273 7.36604 7.58018 7.38184 7.51029C7.39763 7.4404 7.42728 7.37467 7.46889 7.31727C8.00833 6.54889 8.30018 5.62394 8.30294 4.67391C8.30294 3.0758 7.36877 1.91825 6.08433 1.91825C4.79988 1.91825 3.85742 3.0758 3.85742 4.67391C3.84348 5.63727 4.13663 6.57853 4.69147 7.35185C4.73452 7.40859 4.76567 7.47396 4.7829 7.54388C4.80014 7.61379 4.80308 7.68667 4.79155 7.75783C4.78071 7.82898 4.75492 7.8968 4.71601 7.9565C4.6771 8.0162 4.626 8.06636 4.56634 8.10339C4.12429 8.37982 3.47373 8.80308 2.63968 9.37322C2.37518 9.56893 2.16094 9.82868 2.01556 10.1298C1.87019 10.4309 1.7981 10.7643 1.80563 11.1009V11.7574C1.80129 11.8043 1.80648 11.8515 1.82085 11.8961C1.83521 11.9408 1.85846 11.9818 1.88906 12.0166C1.91559 12.0465 1.94781 12.0704 1.9837 12.0867C2.01959 12.1031 2.05836 12.1116 2.09758 12.1116H10.1378C10.2234 12.105 10.3032 12.0645 10.3606 11.9985C10.4181 11.9326 10.4489 11.8462 10.4465 11.7574L10.4798 11.1095ZM10.1712 13.1223H2.13092C1.96451 13.1213 1.80009 13.0847 1.64797 13.0148C1.49584 12.9449 1.35929 12.8433 1.24682 12.7163C1.12985 12.5868 1.03871 12.4347 0.978596 12.2687C0.918484 12.1027 0.890597 11.926 0.896535 11.7488V11.1095C0.887689 10.6023 0.999441 10.1006 1.22198 9.6487C1.44452 9.19676 1.77099 8.80844 2.17261 8.51802L3.6906 7.51599C3.19584 6.65323 2.93375 5.66877 2.93163 4.66532C2.93163 2.48844 4.25776 0.898926 6.09268 0.898926C7.9276 0.898926 9.24543 2.48844 9.24543 4.66532C9.24304 5.64121 8.99583 6.59969 8.5281 7.44686C8.99517 7.74057 9.55399 8.10338 10.1962 8.52667C10.5959 8.81728 10.9195 9.20633 11.1379 9.65872C11.3563 10.1111 11.4626 10.6127 11.4473 11.1182V11.7747C11.4474 12.1277 11.3137 12.4666 11.0751 12.7185C10.8365 12.9705 10.5119 13.1155 10.1712 13.1223Z" fill="#AAAAAA"/>
</g>
<defs>
<clipPath id="clip0">
<rect width="17.0397" height="12.1888" fill="white" transform="translate(0.896484 0.933594)"/>
</clipPath>
</defs>
</svg>
