<svg width="20" height="20" viewBox="0 0 20 20" fill="none" xmlns="http://www.w3.org/2000/svg">
<rect x="0.5" y="0.5" width="19" height="19" rx="3.5" fill="white" stroke="#89919a"/>
<g clip-path="url(#clip0)">
<path d="M15.3801 8.56006L10.9001 4.2301C10.7394 4.08182 10.5287 3.99951 10.3101 3.99951C10.0914 3.99951 9.88073 4.08182 9.72003 4.2301L5.24005 8.57007C5.16476 8.64365 5.10493 8.73159 5.06409 8.82861C5.02324 8.92564 5.0022 9.02986 5.0022 9.13513C5.0022 9.24041 5.02324 9.34462 5.06409 9.44165C5.10493 9.53868 5.16476 9.62649 5.24005 9.70007C5.39964 9.85056 5.61073 9.93445 5.83008 9.93445C6.04943 9.93445 6.26045 9.85056 6.42004 9.70007L9.48004 6.70007V15.3401C9.48004 15.5602 9.56749 15.7713 9.72314 15.927C9.8788 16.0827 10.0899 16.1702 10.3101 16.1702C10.5302 16.1702 10.7413 16.0827 10.897 15.927C11.0526 15.7713 11.1401 15.5602 11.1401 15.3401V6.70007L14.2001 9.70007C14.3602 9.84553 14.5687 9.92615 14.785 9.92615C15.0014 9.92615 15.2099 9.84553 15.3701 9.70007C15.4482 9.62694 15.5106 9.53878 15.5536 9.4408C15.5966 9.34281 15.6192 9.23711 15.6201 9.13013C15.6175 8.91608 15.5314 8.71145 15.3801 8.56006Z" fill="#89919a"/>
</g>
<defs>
<clipPath id="clip0">
<rect width="10.62" height="12.18" fill="white" transform="translate(5 4)"/>
</clipPath>
</defs>
</svg>
