<svg width="20" height="20" viewBox="0 0 20 20" fill="none" xmlns="http://www.w3.org/2000/svg">
<rect x="0.5" y="0.5" width="19" height="19" rx="3.5" fill="white" stroke="#89919a"/>
<g clip-path="url(#clip0)">
<path d="M15.3801 11.64L10.9001 15.97C10.7394 16.1183 10.5287 16.2007 10.3101 16.2007C10.0914 16.2007 9.88073 16.1183 9.72003 15.97L5.24005 11.63C5.16476 11.5564 5.10493 11.4686 5.06409 11.3716C5.02324 11.2746 5.0022 11.1703 5.0022 11.0651C5.0022 10.9598 5.02324 10.8556 5.06409 10.7585C5.10493 10.6615 5.16476 10.5736 5.24005 10.5C5.39848 10.3472 5.61 10.2618 5.83008 10.2618C6.05015 10.2618 6.26162 10.3472 6.42004 10.5L9.48004 13.5V4.85999C9.48004 4.63986 9.56749 4.42873 9.72314 4.27307C9.8788 4.11742 10.0899 4.03003 10.3101 4.03003C10.5302 4.03003 10.7413 4.11742 10.897 4.27307C11.0526 4.42873 11.1401 4.63986 11.1401 4.85999V13.5L14.2001 10.5C14.358 10.3502 14.5673 10.2667 14.785 10.2667C15.0027 10.2667 15.2121 10.3502 15.3701 10.5C15.4491 10.5724 15.5122 10.6605 15.5552 10.7587C15.5983 10.8568 15.6203 10.9629 15.6201 11.0701C15.6199 11.1763 15.5986 11.2813 15.5574 11.3792C15.5162 11.477 15.4559 11.5657 15.3801 11.64Z" fill="#89919a"/>
</g>
<defs>
<clipPath id="clip0">
<rect width="10.62" height="12.18" fill="white" transform="translate(5 4)"/>
</clipPath>
</defs>
</svg>
