<svg width="20" height="20" viewBox="0 0 20 20" fill="none" xmlns="http://www.w3.org/2000/svg">
<rect x="0.5" y="0.5" width="19" height="19" rx="3.5" fill="white" stroke="#89919a"/>
<g clip-path="url(#clip0)">
<path d="M16.24 8.34998C16.1424 8.35132 16.0456 8.3331 15.9552 8.29639C15.8648 8.25967 15.7827 8.20522 15.7137 8.13623C15.6448 8.06725 15.5903 7.98516 15.5536 7.89478C15.5169 7.80439 15.4987 7.70754 15.5 7.60999V6.52002L13.25 8.77002C13.1818 8.83803 13.1006 8.89166 13.0113 8.92773C12.922 8.96381 12.8263 8.98154 12.73 8.97998C12.5845 8.98151 12.4418 8.9396 12.3204 8.8595C12.1989 8.77939 12.1042 8.66474 12.0483 8.5304C11.9924 8.39605 11.9779 8.24809 12.0067 8.10547C12.0355 7.96285 12.1063 7.83209 12.21 7.72998L14.46 5.47998H13.36C13.1637 5.47998 12.9755 5.40208 12.8367 5.26331C12.698 5.12453 12.62 4.93625 12.62 4.73999C12.62 4.54373 12.698 4.35557 12.8367 4.2168C12.9755 4.07802 13.1637 4 13.36 4H16.24C16.4345 4.00263 16.6202 4.08172 16.7568 4.22021C16.8934 4.35871 16.97 4.54545 16.97 4.73999V7.63C16.97 7.7254 16.9511 7.81982 16.9142 7.90784C16.8774 7.99585 16.8235 8.07571 16.7556 8.1427C16.6876 8.20969 16.6071 8.26251 16.5186 8.2981C16.4301 8.33369 16.3354 8.3513 16.24 8.34998ZM16.24 16.97H13.36C13.1798 16.9489 13.0137 16.8624 12.8931 16.7269C12.7725 16.5914 12.7059 16.4164 12.7059 16.235C12.7059 16.0536 12.7725 15.8785 12.8931 15.743C13.0137 15.6075 13.1798 15.5211 13.36 15.5H14.46L12.13 13.16C12.0005 13.0258 11.928 12.8466 11.928 12.66C11.928 12.4735 12.0005 12.2943 12.13 12.16C12.2685 12.0391 12.4461 11.9724 12.63 11.9724C12.8139 11.9724 12.9915 12.0391 13.13 12.16L15.46 14.5V13.4C15.4586 13.3025 15.4768 13.2056 15.5135 13.1152C15.5503 13.0248 15.6047 12.9428 15.6737 12.8738C15.7427 12.8048 15.8248 12.7503 15.9152 12.7136C16.0056 12.6769 16.1025 12.6587 16.2 12.66C16.3963 12.66 16.5845 12.7379 16.7233 12.8767C16.862 13.0155 16.94 13.2038 16.94 13.4V16.28C16.9302 16.4615 16.853 16.6329 16.7235 16.7605C16.594 16.8881 16.4216 16.9628 16.24 16.97ZM8.98999 8.23999C8.98982 8.43884 8.91065 8.6295 8.76996 8.77002C8.63245 8.89301 8.45444 8.96094 8.26996 8.96094C8.08548 8.96094 7.90746 8.89301 7.76996 8.77002L5.51996 6.52002V7.63C5.51996 7.82627 5.442 8.01454 5.30322 8.15332C5.16445 8.2921 4.97623 8.37 4.77997 8.37C4.58371 8.37 4.39549 8.2921 4.25671 8.15332C4.11794 8.01454 4.03998 7.82627 4.03998 7.63V4.76001C4.03998 4.56375 4.11794 4.37547 4.25671 4.23669C4.39549 4.09792 4.58371 4.02002 4.77997 4.02002H7.65997C7.85623 4.02002 8.04445 4.09792 8.18323 4.23669C8.322 4.37547 8.39996 4.56375 8.39996 4.76001C8.39996 4.95627 8.322 5.14443 8.18323 5.2832C8.04445 5.42198 7.85623 5.5 7.65997 5.5H6.56L8.81 7.75C8.93093 7.88401 8.99541 8.05956 8.98999 8.23999ZM8.84998 13.17L6.51996 15.5H7.62C7.80016 15.5211 7.96632 15.6075 8.08691 15.743C8.2075 15.8785 8.27411 16.0536 8.27411 16.235C8.27411 16.4164 8.2075 16.5914 8.08691 16.7269C7.96632 16.8624 7.80016 16.9489 7.62 16.97H4.73999C4.64329 16.9713 4.54731 16.9535 4.45758 16.9174C4.36786 16.8813 4.2862 16.8277 4.21735 16.7598C4.1485 16.6918 4.09383 16.611 4.05652 16.5217C4.01921 16.4325 3.99999 16.3367 4 16.24V13.36C4 13.1637 4.07796 12.9756 4.21674 12.8368C4.35551 12.698 4.54373 12.62 4.73999 12.62C4.93625 12.62 5.12447 12.698 5.26324 12.8368C5.40202 12.9756 5.47998 13.1637 5.47998 13.36V14.46L7.81 12.12C7.9511 12.0046 8.12775 11.9417 8.31 11.9417C8.49225 11.9417 8.66889 12.0046 8.81 12.12C8.88153 12.1882 8.93801 12.2706 8.97589 12.3618C9.01377 12.4531 9.0322 12.5512 9.02997 12.65C9.03904 12.8401 8.97459 13.0263 8.84998 13.17Z" fill="#89919a"/>
</g>
<defs>
<clipPath id="clip0">
<rect width="12.97" height="12.97" fill="white" transform="translate(4 4)"/>
</clipPath>
</defs>
</svg>
