<svg width="15" height="15" viewBox="0 0 15 15" fill="none" xmlns="http://www.w3.org/2000/svg">
<g clip-path="url(#clip0)">
<path d="M10.7401 6.15004C10.7444 7.29755 10.3159 8.40448 9.54005 9.25002L9.40004 9.40004L9.24007 9.54005C8.3992 10.3169 7.29484 10.7458 6.15004 10.74C5.24222 10.74 4.35481 10.4708 3.59999 9.96645C2.84517 9.46209 2.25685 8.74522 1.90944 7.90651C1.56203 7.0678 1.47116 6.1449 1.64827 5.25453C1.82538 4.36416 2.26251 3.54636 2.90443 2.90443C3.54636 2.26251 4.36422 1.82531 5.25459 1.64821C6.14497 1.4711 7.06786 1.56203 7.90657 1.90944C8.74528 2.25685 9.46215 2.84517 9.96651 3.59999C10.4709 4.35481 10.7401 5.24222 10.7401 6.15004ZM14.7401 13.25L11.2101 9.71999C12.1053 8.46117 12.4949 6.91195 12.3017 5.37941C12.1084 3.84687 11.3465 2.44291 10.1668 1.44569C8.98717 0.448477 7.4759 -0.0691813 5.93257 -0.00462335C4.38924 0.0599346 2.9265 0.701953 1.83424 1.7942C0.741992 2.88646 0.0999736 4.34927 0.0354157 5.89259C-0.0291422 7.43592 0.488516 8.94719 1.48573 10.1268C2.48295 11.3065 3.88697 12.0684 5.41951 12.2616C6.95205 12.4548 8.50127 12.0653 9.76009 11.1701L13.2901 14.7C13.3838 14.7957 13.4959 14.8716 13.6196 14.9231C13.7433 14.9746 13.8761 15.0008 14.0101 15C14.1458 15.0022 14.2804 14.9766 14.4059 14.9251C14.5314 14.8735 14.6451 14.7969 14.7401 14.7C14.8384 14.6065 14.9167 14.4942 14.9702 14.3695C15.0237 14.2449 15.0513 14.1106 15.0513 13.975C15.0513 13.8394 15.0237 13.7052 14.9702 13.5806C14.9167 13.4559 14.8384 13.3434 14.7401 13.25Z" fill="white"/>
</g>
<defs>
<clipPath id="clip0">
<rect width="15" height="15" fill="white"/>
</clipPath>
</defs>
</svg>
